<svg width="55" height="55" viewBox="0 0 55 55" fill="none" xmlns="http://www.w3.org/2000/svg">
    <rect width="55" height="55" rx="27.5" fill="#BC2228"/>
    <g clip-path="url(#clip0_29_587)">
        <path d="M28 18C24.13 18 21 21.13 21 25C21 30.25 28 38 28 38C28 38 35 30.25 35 25C35 21.13 31.87 18 28 18ZM23 25C23 22.24 25.24 20 28 20C30.76 20 33 22.24 33 25C33 27.88 30.12 32.19 28 34.88C25.92 32.21 23 27.85 23 25Z" fill="white"/>
        <path d="M28 27.5C29.3807 27.5 30.5 26.3807 30.5 25C30.5 23.6193 29.3807 22.5 28 22.5C26.6193 22.5 25.5 23.6193 25.5 25C25.5 26.3807 26.6193 27.5 28 27.5Z" fill="white"/>
    </g>
    <defs>
        <clipPath id="clip0_29_587">
            <rect width="24" height="24" fill="white" transform="translate(16 16)"/>
        </clipPath>
    </defs>
</svg>
