<svg width="151" height="24" viewBox="0 0 151 24" fill="none" xmlns="http://www.w3.org/2000/svg">
    <path d="M0.68 18V0.719999H3.608L9.32 12.192L15.032 0.719999H17.96V18H14.912V7.68L9.896 18H8.744L3.728 7.68V18H0.68ZM22.9844 23.76L25.4804 16.896L25.5284 18.912L19.8884 5.04H23.2724L27.0644 14.856H26.2964L30.0644 5.04H33.3284L26.0084 23.76H22.9844Z" fill="black"/>
    <path d="M47.2366 18.36C45.5086 18.36 44.0166 17.984 42.7606 17.232C41.5126 16.48 40.5486 15.428 39.8686 14.076C39.1966 12.724 38.8606 11.152 38.8606 9.36C38.8606 7.568 39.1966 5.996 39.8686 4.644C40.5486 3.292 41.5126 2.24 42.7606 1.488C44.0166 0.736 45.5086 0.36 47.2366 0.36C49.2206 0.36 50.8846 0.851999 52.2286 1.836C53.5806 2.82 54.5326 4.152 55.0846 5.832L51.7966 6.744C51.4766 5.696 50.9366 4.884 50.1766 4.308C49.4166 3.724 48.4366 3.432 47.2366 3.432C46.1406 3.432 45.2246 3.676 44.4886 4.164C43.7606 4.652 43.2126 5.34 42.8446 6.228C42.4766 7.116 42.2926 8.16 42.2926 9.36C42.2926 10.56 42.4766 11.604 42.8446 12.492C43.2126 13.38 43.7606 14.068 44.4886 14.556C45.2246 15.044 46.1406 15.288 47.2366 15.288C48.4366 15.288 49.4166 14.996 50.1766 14.412C50.9366 13.828 51.4766 13.016 51.7966 11.976L55.0846 12.888C54.5326 14.568 53.5806 15.9 52.2286 16.884C50.8846 17.868 49.2206 18.36 47.2366 18.36ZM63.5589 18.36C62.2549 18.36 61.1109 18.068 60.1269 17.484C59.1429 16.9 58.3749 16.096 57.8229 15.072C57.2789 14.04 57.0069 12.856 57.0069 11.52C57.0069 10.168 57.2869 8.98 57.8469 7.956C58.4069 6.924 59.1789 6.12 60.1629 5.544C61.1469 4.968 62.2789 4.68 63.5589 4.68C64.8629 4.68 66.0069 4.972 66.9909 5.556C67.9829 6.14 68.7549 6.948 69.3069 7.98C69.8589 9.004 70.1349 10.184 70.1349 11.52C70.1349 12.864 69.8549 14.052 69.2949 15.084C68.7429 16.108 67.9709 16.912 66.9789 17.496C65.9949 18.072 64.8549 18.36 63.5589 18.36ZM63.5589 15.312C64.6069 15.312 65.3869 14.96 65.8989 14.256C66.4189 13.544 66.6789 12.632 66.6789 11.52C66.6789 10.368 66.4149 9.448 65.8869 8.76C65.3669 8.072 64.5909 7.728 63.5589 7.728C62.8469 7.728 62.2629 7.888 61.8069 8.208C61.3509 8.528 61.0109 8.972 60.7869 9.54C60.5709 10.108 60.4629 10.768 60.4629 11.52C60.4629 12.68 60.7229 13.604 61.2429 14.292C61.7709 14.972 62.5429 15.312 63.5589 15.312ZM88.3738 18V10.344C88.3738 9.488 88.1698 8.824 87.7618 8.352C87.3618 7.872 86.8058 7.632 86.0938 7.632C85.6378 7.632 85.2418 7.74 84.9058 7.956C84.5698 8.164 84.3058 8.46 84.1138 8.844C83.9298 9.22 83.8378 9.656 83.8378 10.152L82.4698 9.24C82.4698 8.352 82.6778 7.568 83.0938 6.888C83.5178 6.208 84.0818 5.68 84.7858 5.304C85.4978 4.92 86.2858 4.728 87.1498 4.728C88.6298 4.728 89.7458 5.168 90.4978 6.048C91.2578 6.92 91.6378 8.064 91.6378 9.48V18H88.3738ZM72.7498 18V5.04H75.6298V9.336H76.0378V18H72.7498ZM80.5738 18V10.344C80.5738 9.488 80.3698 8.824 79.9618 8.352C79.5618 7.872 79.0058 7.632 78.2938 7.632C77.6138 7.632 77.0658 7.868 76.6498 8.34C76.2418 8.804 76.0378 9.408 76.0378 10.152L74.6698 9.192C74.6698 8.344 74.8818 7.584 75.3058 6.912C75.7298 6.24 76.2978 5.708 77.0098 5.316C77.7298 4.924 78.5338 4.728 79.4218 4.728C80.4378 4.728 81.2698 4.944 81.9178 5.376C82.5738 5.808 83.0578 6.384 83.3698 7.104C83.6818 7.824 83.8378 8.616 83.8378 9.48V18H80.5738ZM101.118 18.36C99.8301 18.36 98.7541 18.06 97.8901 17.46C97.0261 16.86 96.3741 16.044 95.9341 15.012C95.5021 13.98 95.2861 12.816 95.2861 11.52C95.2861 10.224 95.5021 9.06 95.9341 8.028C96.3661 6.996 97.0021 6.18 97.8421 5.58C98.6821 4.98 99.7181 4.68 100.95 4.68C102.19 4.68 103.27 4.976 104.19 5.568C105.11 6.16 105.822 6.972 106.326 8.004C106.838 9.028 107.094 10.2 107.094 11.52C107.094 12.816 106.842 13.98 106.338 15.012C105.842 16.044 105.146 16.86 104.25 17.46C103.354 18.06 102.31 18.36 101.118 18.36ZM94.7341 23.76V5.04H97.6141V13.92H98.0221V23.76H94.7341ZM100.59 15.456C101.294 15.456 101.87 15.28 102.318 14.928C102.766 14.576 103.098 14.104 103.314 13.512C103.53 12.912 103.638 12.248 103.638 11.52C103.638 10.8 103.526 10.144 103.302 9.552C103.078 8.952 102.73 8.476 102.258 8.124C101.794 7.764 101.198 7.584 100.47 7.584C99.7901 7.584 99.2381 7.748 98.8141 8.076C98.3981 8.404 98.0941 8.864 97.9021 9.456C97.7101 10.048 97.6141 10.736 97.6141 11.52C97.6141 12.304 97.7101 12.992 97.9021 13.584C98.0941 14.176 98.4061 14.636 98.8381 14.964C99.2781 15.292 99.8621 15.456 100.59 15.456ZM118.567 18V11.88C118.567 11.584 118.551 11.208 118.519 10.752C118.487 10.288 118.387 9.824 118.219 9.36C118.051 8.896 117.775 8.508 117.391 8.196C117.015 7.884 116.479 7.728 115.783 7.728C115.503 7.728 115.203 7.772 114.883 7.86C114.563 7.948 114.263 8.12 113.983 8.376C113.703 8.624 113.471 8.992 113.287 9.48C113.111 9.968 113.023 10.616 113.023 11.424L111.151 10.536C111.151 9.512 111.359 8.552 111.775 7.656C112.191 6.76 112.815 6.036 113.647 5.484C114.487 4.932 115.543 4.656 116.815 4.656C117.831 4.656 118.659 4.828 119.299 5.172C119.939 5.516 120.435 5.952 120.787 6.48C121.147 7.008 121.403 7.56 121.555 8.136C121.707 8.704 121.799 9.224 121.831 9.696C121.863 10.168 121.879 10.512 121.879 10.728V18H118.567ZM109.711 18V5.04H112.615V9.336H113.023V18H109.711ZM128.593 18.36C127.665 18.36 126.877 18.184 126.229 17.832C125.589 17.472 125.101 16.996 124.765 16.404C124.437 15.804 124.273 15.144 124.273 14.424C124.273 13.824 124.365 13.276 124.549 12.78C124.733 12.284 125.029 11.848 125.437 11.472C125.853 11.088 126.409 10.768 127.105 10.512C127.585 10.336 128.157 10.18 128.821 10.044C129.485 9.908 130.237 9.78 131.077 9.66C131.917 9.532 132.841 9.392 133.849 9.24L132.673 9.888C132.673 9.12 132.489 8.556 132.121 8.196C131.753 7.836 131.137 7.656 130.273 7.656C129.793 7.656 129.293 7.772 128.773 8.004C128.253 8.236 127.889 8.648 127.681 9.24L124.729 8.304C125.057 7.232 125.673 6.36 126.577 5.688C127.481 5.016 128.713 4.68 130.273 4.68C131.417 4.68 132.433 4.856 133.321 5.208C134.209 5.56 134.881 6.168 135.337 7.032C135.593 7.512 135.745 7.992 135.793 8.472C135.841 8.952 135.865 9.488 135.865 10.08V18H133.009V15.336L133.417 15.888C132.785 16.76 132.101 17.392 131.365 17.784C130.637 18.168 129.713 18.36 128.593 18.36ZM129.289 15.792C129.889 15.792 130.393 15.688 130.801 15.48C131.217 15.264 131.545 15.02 131.785 14.748C132.033 14.476 132.201 14.248 132.289 14.064C132.457 13.712 132.553 13.304 132.577 12.84C132.609 12.368 132.625 11.976 132.625 11.664L133.585 11.904C132.617 12.064 131.833 12.2 131.233 12.312C130.633 12.416 130.149 12.512 129.781 12.6C129.413 12.688 129.089 12.784 128.809 12.888C128.489 13.016 128.229 13.156 128.029 13.308C127.837 13.452 127.693 13.612 127.597 13.788C127.509 13.964 127.465 14.16 127.465 14.376C127.465 14.672 127.537 14.928 127.681 15.144C127.833 15.352 128.045 15.512 128.317 15.624C128.589 15.736 128.913 15.792 129.289 15.792ZM139.914 23.76L142.41 16.896L142.458 18.912L136.818 5.04H140.202L143.994 14.856H143.226L146.994 5.04H150.258L142.938 23.76H139.914Z" fill="#AB1F24"/>
</svg>
